<svg width="28" height="31" viewBox="0 0 28 31" fill="none" xmlns="http://www.w3.org/2000/svg">
<g filter="url(#filter0_d_2_15)">
<path d="M8 11C8 8.172 8 6.757 8.879 5.879C9.757 5 11.172 5 14 5H17C19.828 5 21.243 5 22.121 5.879C23 6.757 23 8.172 23 11V16C23 18.828 23 20.243 22.121 21.121C21.243 22 19.828 22 17 22H14C11.172 22 9.757 22 8.879 21.121C8 20.243 8 18.828 8 16V11Z" stroke="#9C9C9C" stroke-width="1.5"/>
<path d="M8 19C7.20435 19 6.44129 18.6839 5.87868 18.1213C5.31607 17.5587 5 16.7956 5 16V10C5 6.229 5 4.343 6.172 3.172C7.343 2 9.229 2 13 2H17C17.7956 2 18.5587 2.31607 19.1213 2.87868C19.6839 3.44129 20 4.20435 20 5" stroke="#9C9C9C" stroke-width="1.5"/>
</g>
<defs>
<filter id="filter0_d_2_15" x="-2" y="0" width="32" height="32" filterUnits="userSpaceOnUse" color-interpolation-filters="sRGB">
<feFlood flood-opacity="0" result="BackgroundImageFix"/>
<feColorMatrix in="SourceAlpha" type="matrix" values="0 0 0 0 0 0 0 0 0 0 0 0 0 0 0 0 0 0 127 0" result="hardAlpha"/>
<feOffset dy="4"/>
<feGaussianBlur stdDeviation="2"/>
<feComposite in2="hardAlpha" operator="out"/>
<feColorMatrix type="matrix" values="0 0 0 0 0 0 0 0 0 0 0 0 0 0 0 0 0 0 0.25 0"/>
<feBlend mode="normal" in2="BackgroundImageFix" result="effect1_dropShadow_2_15"/>
<feBlend mode="normal" in="SourceGraphic" in2="effect1_dropShadow_2_15" result="shape"/>
</filter>
</defs>
</svg>
