<svg width="18" height="18" viewBox="0 0 18 18" fill="none" xmlns="http://www.w3.org/2000/svg">
<path d="M15.1208 2.87918C14.3191 2.07193 13.3654 1.43137 12.3149 0.994428C11.2644 0.557487 10.1378 0.332808 9.00001 0.333344C4.21168 0.333344 0.344177 4.21168 0.344177 9.00001C0.344177 13.7883 4.21168 17.6667 9.00001 17.6667C13.0408 17.6667 16.41 14.9042 17.3742 11.1667H15.1208C14.6746 12.4337 13.8461 13.5309 12.7498 14.3071C11.6535 15.0833 10.3433 15.5001 9.00001 15.5C5.41418 15.5 2.50001 12.5858 2.50001 9.00001C2.50001 5.41418 5.41418 2.50001 9.00001 2.50001C10.7983 2.50001 12.4017 3.24751 13.5717 4.42834L10.0833 7.91668H17.6667V0.333344L15.1208 2.87918Z" fill="#9C9C9C"/>
</svg>
